<svg width="48" height="48" viewBox="0 0 48 48" fill="none" xmlns="http://www.w3.org/2000/svg">
<circle cx="23.9466" cy="24.0404" r="23.9466" fill="#38569A"/>
<path d="M29.0773 13.7819L26.4156 13.7776C23.4253 13.7776 21.4928 15.7603 21.4928 18.829V21.158H18.8165C18.5853 21.158 18.398 21.3455 18.398 21.5768V24.9513C18.398 25.1825 18.5855 25.3698 18.8165 25.3698H21.4928V33.8847C21.4928 34.116 21.6801 34.3033 21.9113 34.3033H25.403C25.6343 34.3033 25.8216 34.1158 25.8216 33.8847V25.3698H28.9507C29.182 25.3698 29.3693 25.1825 29.3693 24.9513L29.3705 21.5768C29.3705 21.4657 29.3263 21.3594 29.248 21.2808C29.1696 21.2022 29.0628 21.158 28.9518 21.158H25.8216V19.1837C25.8216 18.2347 26.0477 17.753 27.2839 17.753L29.0769 17.7523C29.308 17.7523 29.4952 17.5649 29.4952 17.3338V14.2004C29.4952 13.9696 29.3082 13.7823 29.0773 13.7819Z" fill="white"/>
</svg>
