<svg width="49" height="48" viewBox="0 0 49 48" fill="none" xmlns="http://www.w3.org/2000/svg">
<circle cx="24.7982" cy="24.0404" r="23.4477" fill="white" stroke="#E8E8E8" stroke-width="0.997776"/>
<path d="M19.0843 26.1814L18.3698 28.8486L15.7584 28.9039C14.978 27.4564 14.5353 25.8003 14.5353 24.0403C14.5353 22.3385 14.9492 20.7337 15.6829 19.3206H15.6834L18.0083 19.7468L19.0267 22.0577C18.8135 22.6791 18.6974 23.3462 18.6974 24.0403C18.6974 24.7937 18.8339 25.5155 19.0843 26.1814Z" fill="#FBBB00"/>
<path d="M34.8817 22.1233C34.9995 22.7441 35.061 23.3853 35.061 24.0405C35.061 24.7753 34.9837 25.492 34.8366 26.1833C34.337 28.5359 33.0316 30.5901 31.2232 32.0438L31.2226 32.0433L28.2943 31.8939L27.8799 29.3067C29.0798 28.603 30.0176 27.5017 30.5116 26.1833H25.0238V22.1233H30.5916H34.8817Z" fill="#518EF8"/>
<path d="M31.2226 32.0433L31.2231 32.0438C29.4644 33.4575 27.2302 34.3034 24.7981 34.3034C20.8898 34.3034 17.4918 32.1189 15.7584 28.9041L19.0842 26.1816C19.9509 28.4947 22.1822 30.1413 24.7981 30.1413C25.9225 30.1413 26.9759 29.8373 27.8798 29.3067L31.2226 32.0433Z" fill="#28B446"/>
<path d="M31.349 16.1403L28.0243 18.8622C27.0888 18.2774 25.983 17.9396 24.7982 17.9396C22.1231 17.9396 19.8501 19.6618 19.0268 22.0578L15.6835 19.3206H15.6829C17.391 16.0275 20.8318 13.7776 24.7982 13.7776C27.2884 13.7776 29.5716 14.6646 31.349 16.1403Z" fill="#F14336"/>
</svg>
