<svg width="10" height="10" viewBox="0 0 10 10" fill="none" xmlns="http://www.w3.org/2000/svg">
<g clip-path="url(#clip0_1_3480)">
<path d="M6.78562 5.70885C8.11033 5.70885 9.18453 4.63921 9.18453 3.31981C9.18453 2.00079 8.11033 0.931152 6.78562 0.931152C5.46091 0.931152 4.38747 2.00079 4.38747 3.31981C4.38747 3.93092 4.66646 4.37541 4.66646 4.37541L1.76576 7.26396C1.63556 7.39378 1.45337 7.73084 1.76576 8.04209L2.10054 8.37535C2.23074 8.48657 2.55793 8.64219 2.82553 8.37535L3.21649 7.98667C3.60669 8.37535 4.05307 8.1533 4.22046 7.93087C4.49907 7.54219 4.16466 7.15313 4.16466 7.15313L4.27626 7.04191C4.81146 7.57521 5.28023 7.26434 5.44762 7.04191C5.72661 6.65323 5.44762 6.26416 5.44762 6.26416C5.33603 6.04211 5.11284 6.04211 5.39183 5.76427L5.72661 5.431C5.99421 5.65305 6.54459 5.70885 6.78638 5.70885H6.78562Z" stroke="#38569A" stroke-width="0.42702" stroke-linejoin="round"/>
<path d="M7.62262 3.31987C7.62212 3.54128 7.53371 3.75342 7.37683 3.90966C7.21995 4.0659 7.00745 4.15344 6.78604 4.15304C6.56464 4.15344 6.35213 4.0659 6.19525 3.90966C6.03838 3.75342 5.94997 3.54128 5.94946 3.31987C5.94966 3.21021 5.97146 3.10166 6.01361 3.00042C6.05576 2.89919 6.11744 2.80724 6.19512 2.72984C6.2728 2.65244 6.36497 2.59109 6.46636 2.54931C6.56775 2.50753 6.67638 2.48613 6.78604 2.48633C6.89571 2.48613 7.00433 2.50753 7.10572 2.54931C7.20711 2.59109 7.29928 2.65244 7.37697 2.72984C7.45465 2.80724 7.51633 2.89919 7.55848 3.00042C7.60063 3.10166 7.62243 3.21021 7.62262 3.31987Z" stroke="#38569A" stroke-width="0.42702"/>
</g>
<defs>
<clipPath id="clip0_1_3480">
<rect width="9.10977" height="9.10977" fill="white" transform="translate(0.833984 0.171875)"/>
</clipPath>
</defs>
</svg>
